<?xml version="1.0" encoding="UTF-8"?>
<!-- Generator: visioncortex VTracer 0.6.4 -->
<svg version="1.1" xmlns="http://www.w3.org/2000/svg" width="512" height="512">
<path d="M0 0 C-0.44 7.39 -1.94 14.02 -4.19 21.06 C-4.5 22.06 -4.81 23.05 -5.14 24.07 C-5.78 26.08 -6.42 28.1 -7.07 30.11 C-7.94 32.8 -8.76 35.5 -9.59 38.2 C-10.08 39.74 -10.57 41.28 -11.06 42.81 C-11.27 43.52 -11.48 44.22 -11.69 44.95 C-12.81 48.26 -13.51 49.75 -16.67 51.37 C-20.52 52.1 -24.37 52.71 -28.25 53.25 C-37.91 54.71 -46.85 57.66 -56 61 C-54.72 61.11 -54.72 61.11 -53.42 61.23 C-50.24 61.51 -47.06 61.81 -43.88 62.12 C-42.51 62.25 -41.14 62.37 -39.77 62.49 C-37.79 62.67 -35.81 62.86 -33.83 63.05 C-32.64 63.16 -31.45 63.27 -30.23 63.38 C-26.88 64.02 -24.78 65.07 -22 67 C-22.56 71.11 -23.46 74.49 -25.2 78.25 C-25.66 79.26 -26.12 80.26 -26.59 81.3 C-27.1 82.38 -27.6 83.45 -28.12 84.56 C-28.65 85.69 -29.18 86.83 -29.72 87.99 C-38.89 107.45 -48.66 126.71 -60 145 C-60.45 145.74 -60.91 146.48 -61.38 147.24 C-64.34 152.04 -67.36 156.8 -70.42 161.53 C-72.05 164.08 -73.62 166.66 -75.2 169.25 C-84.86 184.79 -84.86 184.79 -93.88 187.17 C-94.51 187.3 -95.14 187.42 -95.78 187.55 C-98.48 188.1 -101.14 188.78 -103.8 189.45 C-123.21 194.21 -143.05 197.26 -162.97 198.74 C-164.99 198.79 -164.99 198.79 -166 200 C-151.62 206.1 -137.54 209.28 -121.96 210.23 C-114.11 210.78 -114.11 210.78 -111 214 C-111.45 218.79 -113.72 221.48 -116.81 224.94 C-117.82 226.09 -118.83 227.25 -119.84 228.41 C-120.37 229 -120.89 229.6 -121.43 230.21 C-122.94 231.93 -124.43 233.68 -125.91 235.43 C-132.74 243.54 -139.86 251.32 -147.14 259.03 C-149.09 261.1 -151.04 263.18 -152.98 265.26 C-153.64 265.97 -154.3 266.67 -154.98 267.4 C-156.24 268.76 -157.5 270.11 -158.76 271.46 C-160.5 273.31 -162.25 275.16 -164 277 C-164.57 277.6 -165.13 278.2 -165.72 278.81 C-172.31 285.62 -178.81 290.46 -187.81 293.56 C-188.63 293.85 -189.45 294.14 -190.3 294.44 C-214.5 302.83 -238.53 305.47 -264 307 C-250.35 311.9 -236.81 314.89 -222.37 316.35 C-217.1 316.9 -217.1 316.9 -216 318 C-215.48 320.66 -215.48 320.66 -216 324 C-218.09 326.55 -220.64 328.45 -223.25 330.44 C-224.01 331.04 -224.77 331.64 -225.55 332.26 C-228.02 334.19 -230.51 336.1 -233 338 C-233.82 338.63 -234.65 339.26 -235.49 339.92 C-241.28 344.35 -247.12 348.7 -253 353 C-253.73 353.53 -254.45 354.07 -255.2 354.62 C-306.14 391.85 -363.18 413.64 -426 419 C-431.51 432.14 -436.14 445.29 -440 459 C-440.67 461.33 -441.33 463.67 -442 466 C-386.73 470.91 -331.43 470.59 -276.38 463.56 C-275.22 463.42 -275.22 463.42 -274.04 463.27 C-266.05 462.24 -258.14 460.97 -250.29 459.15 C-249.03 458.86 -247.77 458.57 -246.48 458.27 C-242.29 456.74 -240.16 455.12 -237 452 C-235.59 447.78 -235.69 445.13 -237.58 441.2 C-238.31 439.88 -239.06 438.56 -239.81 437.25 C-245.48 426.62 -247.31 417.87 -244 406 C-239.36 392.98 -229.76 384.73 -217.64 378.86 C-206.66 374.06 -194.67 372.54 -182.81 371.84 C-180.86 371.72 -180.86 371.72 -178.88 371.6 C-155.04 370.25 -131.09 370.61 -107.21 370.54 C-45.45 373.87 -45.45 373.87 9 352 C11.62 347.81 11.54 343.8 11 339 C8.22 331.39 2.15 326.42 -5 323 C-11.23 320.81 -17.56 318.94 -23.93 317.2 C-27.4 316.18 -29.65 315.38 -32.12 312.69 C-33.25 309.24 -33.17 307.43 -32 304 C-30 301.56 -30 301.56 -27 300 C-11.66 299.74 7.05 307.41 18.03 317.79 C24.9 325.51 29.09 334.62 29 345 C27.95 353.01 25.58 359.13 20 365 C19.5 365.53 18.99 366.06 18.48 366.61 C-4.86 388.69 -51.81 387.26 -81.59 387.34 C-84.84 387.34 -88.09 387.36 -91.34 387.39 C-98.24 387.44 -105.15 387.47 -112.06 387.5 C-146.77 387.49 -146.77 387.49 -181.43 388.84 C-183.12 388.95 -183.12 388.95 -184.84 389.05 C-198.55 390.08 -213.03 392.8 -223 403 C-226.97 408.2 -228.96 413.23 -228.7 419.82 C-227.44 425.52 -224.63 430.5 -221.85 435.59 C-218.67 441.45 -218.25 446.44 -219 453 C-221.84 461.81 -227.41 468.39 -235.56 472.69 C-244.59 476.41 -254.4 477.58 -264 479 C-265.14 479.17 -266.28 479.34 -267.46 479.51 C-320.84 487.2 -376.29 489.34 -430 484 C-431.18 483.89 -432.37 483.79 -433.59 483.68 C-437.13 483.35 -440.66 483 -444.19 482.62 C-445.23 482.52 -446.27 482.42 -447.34 482.32 C-454.3 481.5 -454.3 481.5 -457.61 479.15 C-461.32 473.41 -459.29 467.87 -458 461.56 C-457.77 460.44 -457.54 459.32 -457.31 458.17 C-449.72 422.54 -432.59 388.71 -414.4 357.42 C-413.21 355.37 -412.04 353.3 -410.89 351.23 C-394.84 322.4 -375.29 295.18 -354 270 C-353.57 269.48 -353.14 268.97 -352.69 268.44 C-340.53 253.94 -327.48 240.39 -314.12 227 C-313.54 226.41 -312.95 225.82 -312.34 225.21 C-306.07 218.92 -299.79 212.73 -293 207 C-291.92 206.05 -290.83 205.1 -289.75 204.15 C-266.41 183.79 -240.81 165.52 -214 150 C-213.33 149.61 -212.65 149.22 -211.96 148.81 C-200.9 142.42 -189.55 136.78 -177.98 131.35 C-177.12 130.94 -176.25 130.53 -175.35 130.11 C-173.39 129.18 -171.42 128.28 -169.45 127.37 C-166.74 126.1 -166.74 126.1 -165 123 C-165.32 119.86 -165.32 119.86 -166 117 C-169.61 115.36 -171.46 114.86 -175.36 115.84 C-176.64 116.37 -177.92 116.93 -179.19 117.5 C-179.91 117.81 -180.62 118.12 -181.36 118.45 C-207.28 130 -231.98 144.44 -255 161 C-255.75 161.54 -256.49 162.07 -257.26 162.62 C-268.49 170.71 -279.37 179.14 -290 188 C-290.58 188.48 -291.16 188.96 -291.76 189.46 C-299.18 195.62 -306.38 201.99 -313.45 208.56 C-315.08 210.08 -316.72 211.58 -318.36 213.08 C-326.2 220.26 -333.89 227.47 -340.83 235.55 C-343.18 238.2 -345.59 240.77 -348.03 243.35 C-354.32 250.02 -360.28 256.83 -366 264 C-366.99 265.2 -367.99 266.4 -368.98 267.6 C-377.11 277.42 -384.68 287.56 -392 298 C-392.54 298.77 -393.08 299.54 -393.64 300.34 C-415.46 331.59 -434.33 364.73 -451 399 C-451.66 399 -452.32 399 -453 399 C-467.29 355.53 -459.63 312.45 -439.59 271.98 C-435.86 264.67 -431.57 257.81 -427 251 C-426.44 250.16 -425.88 249.33 -425.31 248.47 C-386.49 190.49 -386.49 190.49 -371 175 C-368.56 174.75 -368.56 174.75 -366 175 C-364.11 177.84 -363.62 179.12 -363.04 182.35 C-362.79 183.63 -362.79 183.63 -362.55 184.93 C-362.39 185.82 -362.23 186.71 -362.06 187.62 C-360.85 194.3 -359.32 200.62 -357 207 C-356.94 206.38 -356.87 205.77 -356.8 205.13 C-354.83 186.83 -351.78 169.28 -345.69 151.88 C-345.44 151.14 -345.19 150.41 -344.94 149.65 C-340.27 137.07 -330.37 127.95 -321.02 118.74 C-319 116.75 -316.99 114.75 -314.98 112.74 C-309.3 107.1 -303.63 101.48 -297.52 96.29 C-296.19 95.16 -294.91 93.98 -293.64 92.79 C-293.04 92.22 -292.44 91.65 -291.81 91.06 C-291.2 90.48 -290.59 89.89 -289.96 89.29 C-287.44 87.63 -285.96 87.53 -283 88 C-280.58 91.63 -280.52 94.66 -280.19 98.88 C-279.2 109.51 -276.68 119.69 -274 130 C-272.28 128.28 -272.52 125.87 -272.24 123.52 C-265.67 71.68 -265.67 71.68 -252 59 C-248.32 56.22 -244.49 53.7 -240.62 51.19 C-239.54 50.48 -238.46 49.77 -237.34 49.03 C-229.34 43.81 -221.32 38.68 -213 34 C-212.12 33.5 -211.24 33.01 -210.33 32.5 C-200.03 26.74 -189.67 21.1 -178.94 16.19 C-178.23 15.86 -177.52 15.52 -176.8 15.18 C-172.24 13.17 -168.87 12.68 -164 13 C-162.61 17.66 -163.5 21.67 -164.44 26.31 C-166.05 34.96 -166.32 43.23 -166 52 C-165.54 51 -165.54 51 -165.07 49.97 C-158.92 36.62 -152.65 23.7 -144.16 11.67 C-143.13 10.19 -142.17 8.65 -141.21 7.11 C-137.09 0.84 -132.54 -0.99 -125.31 -2.52 C-124.17 -2.76 -124.17 -2.76 -123 -3 C-121.6 -3.3 -121.6 -3.3 -120.17 -3.61 C-83.94 -11.31 -34.3 -18.16 0 0 Z " fill="#000000" transform="translate(472,18)"/>
</svg>
